<!--?xml version="1.0" encoding="UTF-8"?-->
<svg xmlns="http://www.w3.org/2000/svg" version="1.1" width="150" height="150" viewBox="0 0 150 150"><rect x="0" y="0" width="150" height="150" fill="#ffffff"></rect><g transform="scale(4.054)"><g transform="translate(0,0)"><path fill-rule="evenodd" d="M8 0L8 1L9 1L9 2L10 2L10 3L11 3L11 1L13 1L13 2L12 2L12 4L11 4L11 5L10 5L10 4L9 4L9 5L10 5L10 8L9 8L9 6L8 6L8 8L9 8L9 9L7 9L7 8L6 8L6 9L5 9L5 8L3 8L3 9L2 9L2 8L0 8L0 9L1 9L1 10L0 10L0 14L1 14L1 15L2 15L2 16L1 16L1 17L0 17L0 18L1 18L1 19L0 19L0 23L2 23L2 24L0 24L0 29L1 29L1 27L3 27L3 28L2 28L2 29L5 29L5 28L6 28L6 29L7 29L7 28L6 28L6 27L7 27L7 26L9 26L9 25L10 25L10 26L11 26L11 24L10 24L10 23L11 23L11 21L10 21L10 20L11 20L11 19L12 19L12 21L13 21L13 20L14 20L14 22L12 22L12 23L14 23L14 24L13 24L13 25L12 25L12 26L14 26L14 24L15 24L15 25L16 25L16 26L15 26L15 27L14 27L14 28L15 28L15 27L16 27L16 29L18 29L18 30L15 30L15 31L18 31L18 30L19 30L19 33L18 33L18 34L20 34L20 35L19 35L19 36L20 36L20 37L22 37L22 36L24 36L24 37L25 37L25 36L24 36L24 35L25 35L25 34L23 34L23 33L27 33L27 34L26 34L26 36L28 36L28 37L31 37L31 36L32 36L32 37L34 37L34 36L36 36L36 37L37 37L37 34L36 34L36 35L35 35L35 34L34 34L34 32L33 32L33 30L34 30L34 31L35 31L35 30L36 30L36 33L37 33L37 30L36 30L36 28L37 28L37 26L36 26L36 25L37 25L37 22L36 22L36 21L37 21L37 18L36 18L36 20L35 20L35 21L34 21L34 19L33 19L33 20L31 20L31 19L32 19L32 17L31 17L31 16L33 16L33 18L34 18L34 17L37 17L37 14L36 14L36 13L37 13L37 12L35 12L35 11L37 11L37 10L36 10L36 9L37 9L37 8L36 8L36 9L35 9L35 10L33 10L33 9L32 9L32 10L31 10L31 12L30 12L30 13L29 13L29 12L28 12L28 11L29 11L29 10L28 10L28 9L29 9L29 6L28 6L28 8L27 8L27 6L26 6L26 5L25 5L25 4L26 4L26 3L27 3L27 4L28 4L28 5L29 5L29 3L27 3L27 2L25 2L25 1L24 1L24 0L21 0L21 3L19 3L19 5L20 5L20 4L21 4L21 5L23 5L23 6L22 6L22 7L23 7L23 9L24 9L24 8L26 8L26 9L25 9L25 11L24 11L24 10L23 10L23 11L22 11L22 12L21 12L21 11L19 11L19 10L20 10L20 9L22 9L22 8L21 8L21 6L20 6L20 7L19 7L19 6L18 6L18 4L17 4L17 1L18 1L18 0L17 0L17 1L16 1L16 0L15 0L15 1L14 1L14 0L11 0L11 1L9 1L9 0ZM19 0L19 2L20 2L20 0ZM26 0L26 1L27 1L27 0ZM28 0L28 1L29 1L29 0ZM15 1L15 2L16 2L16 1ZM23 1L23 2L24 2L24 1ZM13 3L13 4L12 4L12 5L11 5L11 7L12 7L12 9L10 9L10 10L9 10L9 11L8 11L8 10L7 10L7 9L6 9L6 10L7 10L7 11L6 11L6 12L7 12L7 13L6 13L6 14L7 14L7 13L8 13L8 14L9 14L9 15L8 15L8 16L10 16L10 17L14 17L14 18L12 18L12 19L14 19L14 20L16 20L16 19L15 19L15 16L16 16L16 15L12 15L12 16L10 16L10 15L11 15L11 14L14 14L14 13L15 13L15 12L16 12L16 14L17 14L17 16L18 16L18 17L17 17L17 20L18 20L18 21L20 21L20 22L19 22L19 24L17 24L17 23L18 23L18 22L17 22L17 21L15 21L15 22L17 22L17 23L16 23L16 24L17 24L17 25L19 25L19 26L18 26L18 27L17 27L17 26L16 26L16 27L17 27L17 28L18 28L18 29L19 29L19 30L20 30L20 34L21 34L21 36L22 36L22 33L23 33L23 32L22 32L22 31L23 31L23 30L25 30L25 31L26 31L26 32L28 32L28 28L29 28L29 26L32 26L32 27L34 27L34 25L36 25L36 24L34 24L34 25L33 25L33 23L36 23L36 22L34 22L34 21L33 21L33 23L32 23L32 24L31 24L31 23L30 23L30 22L32 22L32 21L28 21L28 20L29 20L29 17L30 17L30 18L31 18L31 17L30 17L30 16L31 16L31 15L33 15L33 16L34 16L34 15L35 15L35 16L36 16L36 15L35 15L35 14L32 14L32 13L33 13L33 12L34 12L34 13L35 13L35 12L34 12L34 11L33 11L33 10L32 10L32 13L30 13L30 14L29 14L29 13L28 13L28 12L26 12L26 11L27 11L27 10L26 10L26 11L25 11L25 13L24 13L24 11L23 11L23 12L22 12L22 13L20 13L20 15L18 15L18 14L19 14L19 13L18 13L18 12L16 12L16 11L17 11L17 10L19 10L19 9L17 9L17 8L18 8L18 6L17 6L17 8L16 8L16 9L15 9L15 10L12 10L12 9L14 9L14 8L13 8L13 7L14 7L14 6L15 6L15 7L16 7L16 5L15 5L15 4L16 4L16 3ZM23 3L23 5L24 5L24 4L25 4L25 3ZM13 4L13 5L12 5L12 7L13 7L13 5L14 5L14 4ZM23 6L23 7L24 7L24 6ZM25 6L25 7L26 7L26 6ZM30 8L30 9L31 9L31 8ZM3 9L3 10L2 10L2 11L1 11L1 13L3 13L3 14L2 14L2 15L4 15L4 14L5 14L5 11L4 11L4 10L5 10L5 9ZM10 10L10 11L9 11L9 12L10 12L10 13L9 13L9 14L11 14L11 13L13 13L13 11L12 11L12 10ZM15 10L15 11L16 11L16 10ZM2 11L2 12L3 12L3 11ZM10 11L10 12L11 12L11 11ZM17 13L17 14L18 14L18 13ZM22 13L22 14L21 14L21 15L22 15L22 14L23 14L23 13ZM26 13L26 15L28 15L28 13ZM24 14L24 15L25 15L25 14ZM30 14L30 15L29 15L29 16L27 16L27 19L28 19L28 17L29 17L29 16L30 16L30 15L31 15L31 14ZM6 15L6 16L7 16L7 15ZM22 16L22 17L20 17L20 18L19 18L19 17L18 17L18 18L19 18L19 20L21 20L21 21L22 21L22 22L20 22L20 23L22 23L22 24L21 24L21 25L22 25L22 26L19 26L19 27L22 27L22 28L21 28L21 29L20 29L20 30L21 30L21 29L22 29L22 30L23 30L23 27L22 27L22 26L24 26L24 25L25 25L25 26L26 26L26 25L25 25L25 23L24 23L24 20L25 20L25 21L27 21L27 22L26 22L26 24L27 24L27 27L26 27L26 28L24 28L24 29L25 29L25 30L26 30L26 29L27 29L27 27L28 27L28 26L29 26L29 24L30 24L30 25L31 25L31 24L30 24L30 23L29 23L29 22L28 22L28 21L27 21L27 20L26 20L26 16L24 16L24 17L25 17L25 18L23 18L23 16ZM2 17L2 19L1 19L1 21L2 21L2 22L7 22L7 23L5 23L5 24L3 24L3 27L6 27L6 26L7 26L7 25L9 25L9 23L10 23L10 21L9 21L9 20L7 20L7 19L6 19L6 18L7 18L7 17L5 17L5 18L4 18L4 20L2 20L2 19L3 19L3 17ZM9 18L9 19L10 19L10 18ZM20 18L20 19L21 19L21 20L22 20L22 21L23 21L23 18L22 18L22 19L21 19L21 18ZM4 20L4 21L5 21L5 20ZM6 20L6 21L7 21L7 20ZM27 23L27 24L28 24L28 23ZM6 24L6 25L7 25L7 24ZM22 24L22 25L23 25L23 24ZM1 25L1 26L2 26L2 25ZM4 25L4 26L5 26L5 25ZM32 25L32 26L33 26L33 25ZM8 27L8 28L9 28L9 29L8 29L8 30L9 30L9 29L11 29L11 30L12 30L12 31L9 31L9 32L8 32L8 34L9 34L9 35L8 35L8 37L9 37L9 36L10 36L10 37L12 37L12 35L14 35L14 37L17 37L17 36L18 36L18 35L16 35L16 34L15 34L15 33L13 33L13 32L14 32L14 29L13 29L13 27L12 27L12 28L11 28L11 27ZM35 27L35 28L36 28L36 27ZM33 28L33 29L34 29L34 28ZM12 29L12 30L13 30L13 29ZM29 29L29 32L32 32L32 29ZM30 30L30 31L31 31L31 30ZM12 31L12 32L13 32L13 31ZM9 32L9 34L10 34L10 36L11 36L11 34L12 34L12 33L11 33L11 32ZM21 32L21 33L22 33L22 32ZM10 33L10 34L11 34L11 33ZM31 33L31 34L29 34L29 35L28 35L28 36L30 36L30 35L31 35L31 34L33 34L33 33ZM32 35L32 36L33 36L33 35ZM0 0L0 7L7 7L7 0ZM1 1L1 6L6 6L6 1ZM2 2L2 5L5 5L5 2ZM30 0L30 7L37 7L37 0ZM31 1L31 6L36 6L36 1ZM32 2L32 5L35 5L35 2ZM0 30L0 37L7 37L7 30ZM1 31L1 36L6 36L6 31ZM2 32L2 35L5 35L5 32Z" fill="#000000"></path></g></g></svg>
